<?xml version="1.0" standalone="no"?>
<!DOCTYPE svg PUBLIC "-//W3C//DTD SVG 1.1//EN" "http://www.w3.org/Graphics/SVG/1.1/DTD/svg11.dtd" >
<svg xmlns="http://www.w3.org/2000/svg" xmlns:xlink="http://www.w3.org/1999/xlink" version="1.1">
<metadata></metadata>
<defs>
<font id="noto_sans_displaymedium" horiz-adv-x="1103" >
<font-face units-per-em="2048" ascent="1638" descent="-410" />
<missing-glyph horiz-adv-x="499" />
<glyph unicode="&#xfb01;" horiz-adv-x="1232" d="M33 938v102l170 68v70q0 211 90 300t256 89q70 0 127 -12.5t100 -26.5l-55 -166q-31 10 -70 19.5t-82 9.5q-143 0 -143 -215v-72h252v-166h-252v-938h-223v938h-170zM841 1399q0 68 37 96.5t88 28.5t88 -29t37 -96q0 -66 -37 -95.5t-88 -29.5t-88 29.5t-37 95.5zM854 0 v1104h223v-1104h-223z" />
<glyph unicode="&#xfb02;" horiz-adv-x="1230" d="M33 938v102l170 68v70q0 211 90 300t256 89q70 0 127 -12.5t100 -26.5l-55 -166q-31 10 -70 19.5t-82 9.5q-143 0 -143 -215v-72h252v-166h-252v-938h-223v938h-170zM854 0v1556h221v-1556h-221z" />
<glyph unicode="&#xfb03;" horiz-adv-x="1929" d="M33 938v102l170 68v70q0 211 90 300t256 89q70 0 127 -12.5t100 -26.5l-55 -166q-31 10 -70 19.5t-82 9.5q-143 0 -143 -215v-72h252v-166h-252v-938h-223v938h-170zM731 938v102l170 68v70q0 211 90 300t256 89q70 0 127 -12.5t100 -26.5l-55 -166q-31 10 -70 19.5 t-82 9.5q-143 0 -143 -215v-72h252v-166h-252v-938h-223v938h-170zM1540 1399q0 68 37 96.5t88 28.5t88 -29t37 -96q0 -66 -37 -95.5t-88 -29.5t-88 29.5t-37 95.5zM1553 0v1104h223v-1104h-223z" />
<glyph unicode="&#xfb04;" horiz-adv-x="1929" d="M33 938v102l170 68v70q0 211 90 300t256 89q70 0 127 -12.5t100 -26.5l-55 -166q-31 10 -70 19.5t-82 9.5q-143 0 -143 -215v-72h252v-166h-252v-938h-223v938h-170zM731 938v102l170 68v70q0 211 90 300t256 89q70 0 127 -12.5t100 -26.5l-55 -166q-31 10 -70 19.5 t-82 9.5q-143 0 -143 -215v-72h252v-166h-252v-938h-223v938h-170zM1553 0v1556h221v-1556h-221z" />
<glyph horiz-adv-x="0" />
<glyph horiz-adv-x="682" />
<glyph horiz-adv-x="0" />
<glyph horiz-adv-x="0" />
<glyph unicode="&#xd;" horiz-adv-x="499" />
<glyph unicode=" "  horiz-adv-x="499" />
<glyph unicode="&#x09;" horiz-adv-x="499" />
<glyph unicode="&#xa0;" horiz-adv-x="499" />
<glyph unicode="!" horiz-adv-x="532" d="M125 121q0 80 41 112.5t100 32.5q55 0 97.5 -32.5t42.5 -112.5t-42 -115t-98 -35q-59 0 -100 35t-41 115zM137 1462h260l-41 -1028h-180z" />
<glyph unicode="&#x22;" horiz-adv-x="841" d="M123 1462h221l-39 -528h-143zM500 1462h219l-39 -528h-143z" />
<glyph unicode="#" horiz-adv-x="1247" d="M45 422v158h264l53 299h-247v157h276l76 426h168l-74 -426h240l76 426h163l-75 -426h237v-157h-268l-51 -299h254v-158h-285l-76 -422h-166l76 422h-240l-73 -422h-166l72 422h-234zM477 580h240l51 299h-240z" />
<glyph unicode="$" d="M102 1042q0 152 103.5 240t277.5 100v172h133v-170q104 -4 192.5 -24.5t164.5 -54.5l-66 -177q-63 27 -139 47.5t-152 26.5v-377q125 -39 212 -85t134.5 -112.5t47.5 -174.5q0 -145 -99.5 -237.5t-294.5 -113.5v-221h-133v213q-231 6 -377 74v201q72 -35 176.5 -62.5 t200.5 -30.5v383q-195 66 -288 151t-93 232zM311 1053q0 -70 38 -110t134 -71v326q-86 -8 -129 -47t-43 -98zM616 285q94 12 138.5 52t44.5 103q0 66 -40 103t-143 69v-327z" />
<glyph unicode="%" horiz-adv-x="1660" d="M80 1026q0 217 72.5 337t226.5 120q150 0 228.5 -120t78.5 -337t-74.5 -339t-232.5 -122q-145 0 -222 122t-77 339zM260 1026q0 -154 27.5 -231.5t91.5 -77.5q125 0 125 309q0 305 -125 305q-63 0 -91 -76.5t-28 -228.5zM356 0l762 1462h185l-762 -1462h-185zM975 440 q0 217 72.5 337t226.5 120q147 0 227 -120t80 -337t-75.5 -338.5t-231.5 -121.5q-143 0 -221 121.5t-78 338.5zM1157 440q0 -154 27.5 -230.5t91.5 -76.5q125 0 125 307q0 305 -125 305q-63 0 -91 -75.5t-28 -229.5z" />
<glyph unicode="&#x26;" horiz-adv-x="1435" d="M92 385q0 156 75 251t206 175q-63 78 -108.5 160t-45.5 188q0 152 100.5 239t274.5 87q164 0 261 -83t97 -235q0 -131 -77.5 -223t-194.5 -166l324 -350q45 63 74.5 145t49.5 175h228q-29 -127 -80 -245t-127 -212l285 -291h-291l-144 154q-88 -78 -193.5 -126 t-258.5 -48q-211 0 -333 107.5t-122 297.5zM324 397q0 -104 65.5 -166.5t171.5 -62.5q100 0 175 35t126 86l-360 389q-84 -59 -131 -121.5t-47 -159.5zM430 1155q0 -68 33 -126t90 -126q96 63 141 120.5t45 135.5q0 70 -41.5 111t-107.5 41q-68 0 -114 -39t-46 -117z" />
<glyph unicode="'" horiz-adv-x="466" d="M123 1462h221l-39 -528h-143z" />
<glyph unicode="(" horiz-adv-x="610" d="M76 561q0 250 67.5 482.5t212.5 418.5h197q-131 -193 -198.5 -424t-67.5 -475q0 -238 66.5 -467t197.5 -420h-195q-145 180 -212.5 408.5t-67.5 476.5z" />
<glyph unicode=")" horiz-adv-x="610" d="M57 1462h197q145 -186 211.5 -418.5t66.5 -482.5q0 -248 -66.5 -476t-211.5 -409h-195q131 190 198 420t67 467q0 244 -68 475.5t-199 423.5z" />
<glyph unicode="*" horiz-adv-x="1054" d="M70 1073l32 207l355 -109l-39 385h213l-37 -385l360 109l29 -207l-340 -31l221 -315l-186 -102l-156 344l-139 -344l-195 102l218 315z" />
<glyph unicode="+" horiz-adv-x="1099" d="M88 639v166h375v414h170v-414h375v-166h-375v-412h-170v412h-375z" />
<glyph unicode="," horiz-adv-x="530" d="M72 -264q27 119 54.5 257t41.5 245h217l14 -23q-27 -109 -73.5 -239t-92.5 -240h-161z" />
<glyph unicode="-" horiz-adv-x="618" d="M68 457v184h483v-184h-483z" />
<glyph unicode="." horiz-adv-x="530" d="M125 121q0 80 40 112.5t99 32.5q57 0 99.5 -32.5t42.5 -112.5t-42 -115t-100 -35q-59 0 -99 35t-40 115z" />
<glyph unicode="/" horiz-adv-x="751" d="M16 0l512 1462h209l-512 -1462h-209z" />
<glyph unicode="0" d="M84 733q0 238 46 406t148.5 257t272.5 89q238 0 352.5 -198t114.5 -554q0 -238 -46 -405.5t-148.5 -257.5t-272.5 -90q-240 0 -353.5 199.5t-113.5 553.5zM307 733q0 -287 54.5 -429t189.5 -142q133 0 188.5 141t55.5 430q0 285 -55.5 427.5t-188.5 142.5 q-135 0 -189.5 -142.5t-54.5 -427.5z" />
<glyph unicode="1" d="M145 1135l400 327h190v-1462h-221v971q0 78 1 140.5t5 121.5q-25 -29 -51.5 -54.5t-58.5 -54.5l-148 -129z" />
<glyph unicode="2" d="M84 0v168l354 383q102 113 170 195.5t101.5 159.5t33.5 167q0 111 -58 168t-153 57q-90 0 -164.5 -36.5t-154.5 -106.5l-121 145q84 74 191.5 128.5t259.5 54.5q197 0 311.5 -106.5t114.5 -284.5q0 -117 -45 -215.5t-126 -197.5t-190 -216l-241 -260v-10h651v-193h-934z " />
<glyph unicode="3" d="M82 59v197q86 -47 184.5 -71.5t188.5 -24.5q172 0 244.5 70.5t72.5 197.5q0 123 -88 180.5t-272 57.5h-119v178h121q172 0 249.5 69.5t77.5 182.5q0 98 -59 152.5t-166 54.5q-106 0 -183 -36t-140 -83l-105 149q76 61 184.5 105.5t255.5 44.5q213 0 325 -99.5t112 -259.5 q0 -150 -81 -237.5t-210 -116.5v-8q166 -20 250 -110.5t84 -233.5q0 -127 -57.5 -226.5t-177.5 -155.5t-306 -56q-113 0 -206 18t-179 61z" />
<glyph unicode="4" d="M37 324v172l627 972h219v-960h186v-184h-186v-324h-217v324h-629zM244 508h422v397q0 96 3 181t7 143h-8q-18 -41 -39 -84t-41 -76z" />
<glyph unicode="5" d="M111 59v199q70 -43 170 -69.5t188 -26.5q139 0 223 70.5t84 220.5q0 133 -75.5 203.5t-237.5 70.5q-55 0 -119.5 -10t-103.5 -21l-99 60l52 706h714v-192h-522l-29 -383q33 6 81 13t116 7q201 0 326 -112.5t125 -321.5q0 -231 -137.5 -362t-391.5 -131q-109 0 -203 20 t-161 59z" />
<glyph unicode="6" d="M92 623q0 158 26.5 310t97.5 276t200 198t332 74q39 0 90 -3t86 -14v-182q-74 25 -172 25q-170 0 -265.5 -75t-135.5 -201t-46 -277h12q41 72 116 122t196 50q180 0 287.5 -118t107.5 -333q0 -229 -122 -362t-329 -133q-135 0 -243.5 69.5t-173 212t-64.5 361.5zM315 508 q0 -82 29 -163t86 -133t141 -52q104 0 169 76.5t65 238.5q0 129 -57.5 205t-172.5 76q-80 0 -138 -37t-90 -94.5t-32 -116.5z" />
<glyph unicode="7" d="M76 1270v192h946v-155l-539 -1307h-239l540 1270h-708z" />
<glyph unicode="8" d="M84 373q0 150 82 243t194 148q-98 61 -164.5 148t-66.5 221q0 113 55.5 191.5t150.5 118.5t216 40q123 0 218 -40t150.5 -119t55.5 -194q0 -131 -74 -215t-180 -141q80 -43 147.5 -97t109.5 -127t42 -171q0 -184 -126 -291.5t-339 -107.5q-231 0 -351 103t-120 290z M297 377q0 -98 62.5 -164t191.5 -66q125 0 190.5 64.5t65.5 167.5q0 100 -71.5 166.5t-178.5 116.5l-27 12q-111 -53 -172 -124t-61 -173zM342 1120q0 -102 62.5 -158.5t150.5 -101.5q84 41 144.5 100.5t60.5 159.5q0 92 -58.5 142.5t-152.5 50.5q-90 0 -148.5 -50.5 t-58.5 -142.5z" />
<glyph unicode="9" d="M86 983q0 231 122 365.5t327 134.5q137 0 245.5 -71t172 -213t63.5 -361q0 -162 -27.5 -314.5t-99.5 -275.5t-200 -195.5t-329 -72.5q-41 0 -92 4t-86 14v182q35 -12 79 -18t87 -6q176 0 272.5 73.5t135.5 198.5t45 277h-10q-43 -70 -117 -120t-201 -50 q-174 0 -280.5 117.5t-106.5 330.5zM303 987q0 -131 57.5 -205.5t169.5 -74.5q80 0 139.5 36.5t91.5 93t32 117.5q0 84 -29 164t-85 132.5t-140 52.5q-104 0 -170 -78t-66 -238z" />
<glyph unicode=":" horiz-adv-x="530" d="M125 121q0 80 40 112.5t99 32.5q57 0 99.5 -32.5t42.5 -112.5t-42 -115t-100 -35q-59 0 -99 35t-40 115zM125 981q0 84 40 116.5t99 32.5q57 0 99.5 -32.5t42.5 -116.5q0 -78 -42 -112.5t-100 -34.5q-59 0 -99 34.5t-40 112.5z" />
<glyph unicode=";" horiz-adv-x="530" d="M59 -264q27 117 53.5 256t43.5 246h217l14 -23q-27 -109 -74 -239t-92 -240h-162zM123 981q0 84 41 116.5t98 32.5t99 -32.5t42 -116.5q0 -78 -42 -112.5t-99 -34.5t-98 34.5t-41 112.5z" />
<glyph unicode="&#x3c;" horiz-adv-x="1097" d="M88 655v115l920 485v-182l-689 -352l689 -311v-183z" />
<glyph unicode="=" horiz-adv-x="1099" d="M98 436v168h901v-168h-901zM98 840v166h901v-166h-901z" />
<glyph unicode="&#x3e;" horiz-adv-x="1097" d="M88 227v183l688 311l-688 352v182l920 -485v-115z" />
<glyph unicode="?" horiz-adv-x="872" d="M16 1374q84 47 185.5 78t224.5 31q190 0 294.5 -98.5t104.5 -262.5q0 -90 -26.5 -152.5t-76.5 -116.5t-122 -116q-61 -53 -93 -92t-44 -78t-12 -92v-41h-181v60q0 113 35 185.5t131 154.5q68 59 107 101t55 84t16 97q0 88 -54 135t-150 47q-90 0 -165 -25.5t-149 -62.5z M227 121q0 80 41 112.5t101 32.5q55 0 97 -32.5t42 -112.5t-42 -115t-97 -35q-59 0 -100.5 35t-41.5 115z" />
<glyph unicode="@" horiz-adv-x="1728" d="M102 575q0 190 57.5 351t164 282t258 187.5t342.5 66.5q205 0 363.5 -88t248.5 -252t90 -391q0 -94 -21.5 -184t-63.5 -164t-105.5 -118t-149.5 -44q-82 0 -135 48t-70 116h-12q-37 -70 -102.5 -117t-161.5 -47q-158 0 -241 105.5t-83 279.5q0 135 51.5 239.5t147.5 164 t229 59.5q88 0 173 -15.5t137 -35.5l-19 -416q-2 -33 -3 -50t-1 -24q0 -100 29.5 -131.5t68.5 -31.5q53 0 91 50t56.5 133t18.5 185q0 184 -68.5 313.5t-189.5 197t-276 67.5q-213 0 -358.5 -94.5t-220.5 -258t-75 -376.5q0 -295 145.5 -453t420.5 -158q113 0 227.5 28 t204.5 62v-155q-88 -39 -195.5 -62.5t-232.5 -23.5q-231 0 -397 90t-254.5 259t-88.5 406zM662 602q0 -127 45 -182t122 -55q100 0 144.5 81.5t52.5 215.5l12 245q-25 8 -57.5 13.5t-67.5 5.5q-92 0 -147 -47.5t-79.5 -121t-24.5 -155.5z" />
<glyph unicode="A" horiz-adv-x="1273" d="M0 0l514 1468h246l512 -1468h-238l-137 422h-522l-137 -422h-238zM438 614h400l-136 412q-6 25 -19 69t-26.5 91t-21.5 82q-14 -70 -31.5 -134.5t-30.5 -107.5z" />
<glyph unicode="B" horiz-adv-x="1267" d="M178 0v1462h414q266 0 399 -82t133 -282q0 -127 -64.5 -213t-178.5 -109v-10q78 -16 142 -54t103 -109t39 -185q0 -201 -131 -309.5t-358 -108.5h-498zM406 184h237q160 0 223.5 70t63.5 184q0 104 -65.5 169t-231.5 65h-227v-488zM406 852h215q156 0 213 55.5t57 163.5 q0 109 -70.5 157t-220.5 48h-194v-424z" />
<glyph unicode="C" horiz-adv-x="1222" d="M113 731q0 221 75.5 390t223 265.5t360.5 96.5q102 0 204.5 -23.5t184.5 -66.5l-80 -185q-68 33 -145.5 58.5t-165.5 25.5q-197 0 -309.5 -150.5t-112.5 -412.5q0 -260 104.5 -409.5t317.5 -149.5q90 0 172 17.5t166 45.5v-190q-82 -33 -167 -48t-198 -15q-213 0 -353 93 t-208.5 262t-68.5 396z" />
<glyph unicode="D" horiz-adv-x="1411" d="M178 0v1462h434q317 0 501.5 -182.5t184.5 -534.5q0 -371 -192.5 -558t-534.5 -187h-393zM406 186h157q498 0 498 553q0 276 -120 406.5t-343 130.5h-192v-1090z" />
<glyph unicode="E" horiz-adv-x="1069" d="M178 0v1462h780v-188h-552v-418h518v-186h-518v-480h552v-190h-780z" />
<glyph unicode="F" horiz-adv-x="1017" d="M178 0v1462h780v-188h-555v-477h519v-189h-519v-608h-225z" />
<glyph unicode="G" horiz-adv-x="1402" d="M113 731q0 229 84 398t243.5 261.5t386.5 92.5q117 0 222.5 -24.5t193.5 -63.5l-80 -185q-70 35 -157.5 58.5t-182.5 23.5q-227 0 -351 -151.5t-124 -411.5q0 -164 47 -291t147.5 -198.5t260.5 -71.5q78 0 134 9t101 22v397h-284v190h506v-729q-109 -39 -228 -58 t-264 -19q-313 0 -484 198.5t-171 552.5z" />
<glyph unicode="H" horiz-adv-x="1443" d="M178 0v1462h228v-606h630v606h228v-1462h-228v668h-630v-668h-228z" />
<glyph unicode="I" horiz-adv-x="700" d="M72 0v127l164 51v1104l-164 53v127h555v-127l-164 -53v-1104l164 -51v-127h-555z" />
<glyph unicode="J" horiz-adv-x="569" d="M-150 -190q31 -8 66 -14.5t74 -6.5q51 0 92 20.5t65.5 72.5t24.5 151v1429h227v-1419q0 -231 -107.5 -337.5t-283.5 -106.5q-53 0 -92 7t-66 19v185z" />
<glyph unicode="K" horiz-adv-x="1228" d="M178 0v1462h228v-706q45 61 95 123.5t99 124.5l358 458h259l-517 -639l529 -823h-262l-428 674l-133 -119v-555h-228z" />
<glyph unicode="L" horiz-adv-x="1042" d="M178 0v1462h228v-1272h581v-190h-809z" />
<glyph unicode="M" horiz-adv-x="1779" d="M178 0v1462h320l383 -1173h8l391 1173h319v-1462h-217v838q0 72 2 147.5t5.5 143t7.5 112.5h-8l-412 -1241h-199l-401 1243h-8q4 -43 8 -111.5t6 -149.5t2 -157v-825h-207z" />
<glyph unicode="N" horiz-adv-x="1507" d="M178 0v1462h277l671 -1175h9q-2 43 -5.5 108.5t-6.5 140t-3 140.5v786h208v-1462h-279l-674 1182h-8q4 -82 10 -187.5t8 -216.5v-778h-207z" />
<glyph unicode="O" horiz-adv-x="1513" d="M113 735q0 225 69.5 394t214 262.5t363.5 93.5q213 0 355 -93.5t214 -262.5t72 -396t-72 -396t-215 -263t-356 -94q-219 0 -362.5 94t-213 264t-69.5 397zM352 733q0 -262 97.5 -413.5t308.5 -151.5q213 0 308 151.5t95 413.5t-95 411.5t-306 149.5t-309.5 -149.5 t-98.5 -411.5z" />
<glyph unicode="P" horiz-adv-x="1181" d="M178 0v1462h395q268 0 392.5 -115.5t124.5 -322.5q0 -123 -50.5 -229.5t-168 -173t-322.5 -66.5h-143v-555h-228zM406 741h120q162 0 247 62.5t85 212.5q0 131 -71.5 195.5t-225.5 64.5h-155v-535z" />
<glyph unicode="Q" horiz-adv-x="1513" d="M113 735q0 225 69.5 394t214 262.5t363.5 93.5q213 0 355 -93.5t214 -262.5t72 -396q0 -262 -93.5 -448.5t-279.5 -259.5l330 -373h-305l-258 330q-8 0 -18.5 -1t-18.5 -1q-219 0 -362.5 94t-213 264t-69.5 397zM352 733q0 -262 97.5 -413.5t308.5 -151.5 q213 0 308 151.5t95 413.5t-95 411.5t-306 149.5t-309.5 -149.5t-98.5 -411.5z" />
<glyph unicode="R" horiz-adv-x="1228" d="M178 0v1462h395q264 0 391.5 -104.5t127.5 -317.5q0 -113 -38 -189.5t-98.5 -125.5t-130.5 -76l387 -649h-258l-325 592h-223v-592h-228zM406 776h161q150 0 221.5 64.5t71.5 191.5q0 131 -72.5 186.5t-226.5 55.5h-155v-498z" />
<glyph unicode="S" horiz-adv-x="1067" d="M94 55v209q82 -37 186.5 -66.5t211.5 -29.5q133 0 199.5 57.5t66.5 153.5q0 68 -30 114t-96.5 85.5t-176.5 83.5q-104 43 -181 98t-120 137t-43 201q0 180 125.5 282.5t330.5 102.5q113 0 211.5 -24.5t182.5 -63.5l-72 -183q-78 35 -162 57.5t-166 22.5q-113 0 -169 -53 t-56 -139q0 -68 28.5 -113t92 -83t168.5 -83q115 -49 194.5 -103t120.5 -131t41 -192q0 -195 -132 -305t-368 -110t-387 75z" />
<glyph unicode="T" horiz-adv-x="1089" d="M27 1272v190h1034v-190h-404v-1272h-225v1272h-405z" />
<glyph unicode="U" horiz-adv-x="1423" d="M166 520v942h227v-932q0 -362 322 -362q168 0 241.5 98.5t73.5 265.5v930h227v-946q0 -152 -60 -273.5t-182 -192t-308 -70.5q-266 0 -403.5 148t-137.5 392z" />
<glyph unicode="V" horiz-adv-x="1202" d="M0 1462h240l280 -917q23 -74 46.5 -162t33.5 -160q12 72 34.5 160t45.5 164l281 915h241l-481 -1462h-242z" />
<glyph unicode="W" horiz-adv-x="1835" d="M18 1462h230l196 -864q20 -88 38 -185.5t28 -172.5q10 78 30.5 178t41.5 182l219 862h223l227 -868q23 -82 42.5 -182.5t29.5 -171.5q8 76 27.5 172t40.5 186l194 864h230l-359 -1462h-246l-231 903q-12 49 -26.5 110.5t-24.5 116t-15 76.5q-4 -23 -13 -76t-22.5 -116.5 t-27.5 -116.5l-227 -897h-246z" />
<glyph unicode="X" horiz-adv-x="1198" d="M4 0l457 760l-428 702h252l315 -559l315 559h244l-428 -704l461 -758h-258l-340 610l-346 -610h-244z" />
<glyph unicode="Y" horiz-adv-x="1138" d="M0 1462h246l323 -684l326 684h244l-455 -895v-567h-227v559z" />
<glyph unicode="Z" horiz-adv-x="1116" d="M66 0v158l692 1114h-672v190h946v-157l-692 -1115h711v-190h-985z" />
<glyph unicode="[" horiz-adv-x="632" d="M143 -324v1786h441v-166h-240v-1454h240v-166h-441z" />
<glyph unicode="\" horiz-adv-x="751" d="M16 1462h207l514 -1462h-209z" />
<glyph unicode="]" horiz-adv-x="632" d="M49 -158h240v1454h-240v166h440v-1786h-440v166z" />
<glyph unicode="^" horiz-adv-x="1089" d="M55 539l410 934h113l456 -934h-184l-326 708l-286 -708h-183z" />
<glyph unicode="_" horiz-adv-x="858" d="M-4 -184h866v-133h-866v133z" />
<glyph unicode="`" horiz-adv-x="620" d="M82 1548v21h256q23 -45 59.5 -101.5t73.5 -110.5t68 -91v-25h-150q-45 37 -106.5 95.5t-116.5 116.5t-84 95z" />
<glyph unicode="a" horiz-adv-x="1116" d="M84 313q0 334 485 353l176 6v61q0 121 -50 171t-140 50q-76 0 -150.5 -24.5t-142.5 -59.5l-67 158q76 41 172.5 68.5t205.5 27.5q195 0 294.5 -91t99.5 -285v-748h-158l-43 154h-8q-68 -90 -142.5 -132t-205.5 -42q-139 0 -232.5 80.5t-93.5 252.5zM313 311 q0 -86 46.5 -125t119.5 -39q113 0 189.5 72t76.5 215v96l-133 -4q-170 -8 -234.5 -63t-64.5 -152z" />
<glyph unicode="b" horiz-adv-x="1198" d="M156 0v1556h221v-374q0 -66 -4 -128.5t-6 -95.5h10q43 70 117.5 117t191.5 47q186 0 300 -143t114 -426q0 -285 -115 -429t-301 -144q-119 0 -191.5 46t-115.5 109h-17l-38 -135h-166zM377 551q0 -190 54 -291.5t204 -101.5q117 0 177 102t60 298q0 388 -241 388 q-141 0 -197.5 -93t-56.5 -286v-16z" />
<glyph unicode="c" horiz-adv-x="954" d="M98 545q0 205 64.5 332t178.5 187t259 60q86 0 165 -18.5t130 -44.5l-68 -174q-53 23 -111.5 38t-113.5 15q-274 0 -274 -393q0 -188 68.5 -286.5t199.5 -98.5q84 0 149.5 20.5t124.5 53.5v-189q-57 -35 -124.5 -51t-161.5 -16q-219 0 -352.5 136t-133.5 429z" />
<glyph unicode="d" horiz-adv-x="1198" d="M98 549q0 285 115 430t301 145q117 0 190.5 -47t118.5 -114h13q-4 29 -9.5 84t-5.5 96v413h221v-1556h-174l-39 147h-8q-45 -70 -118.5 -118.5t-192.5 -48.5q-184 0 -298 143t-114 426zM326 545q0 -186 61 -286.5t182 -100.5q143 0 201.5 88t58.5 268v33q0 195 -56 297 t-206 102q-121 0 -181 -106.5t-60 -294.5z" />
<glyph unicode="e" horiz-adv-x="1112" d="M98 543q0 279 131 430t344 151q205 0 326 -134t121 -365v-119h-694q4 -170 81.5 -260t219.5 -90q100 0 179 19.5t161 57.5v-180q-78 -39 -159 -56t-196 -17q-152 0 -267.5 63t-181 188t-65.5 312zM332 666h469q-2 129 -56.5 209.5t-169.5 80.5q-109 0 -171 -75.5 t-72 -214.5z" />
<glyph unicode="f" horiz-adv-x="698" d="M33 938v102l170 68v70q0 211 90 300t256 89q70 0 127 -12.5t100 -26.5l-55 -166q-31 10 -70 19.5t-82 9.5q-143 0 -143 -215v-72h252v-166h-252v-938h-223v938h-170z" />
<glyph unicode="g" horiz-adv-x="1198" d="M98 549q0 266 110.5 420.5t303.5 154.5q207 0 315 -166h9l24 146h182v-1118q0 -236 -119.5 -357t-369.5 -121q-115 0 -209 16.5t-172 51.5v191q164 -86 387 -86q125 0 194.5 76.5t69.5 215.5v37q0 27 2 70t4 65h-8q-51 -86 -129 -125.5t-180 -39.5q-193 0 -303.5 150.5 t-110.5 418.5zM328 547q0 -193 61.5 -293t181.5 -100q137 0 198.5 82.5t61.5 271.5v41q0 213 -63.5 304t-200.5 91q-117 0 -178 -101.5t-61 -295.5z" />
<glyph unicode="h" horiz-adv-x="1220" d="M156 0v1556h221v-415q0 -51 -4 -102.5t-6 -84.5h12q51 84 134 126t179 42q180 0 279.5 -96t99.5 -307v-719h-223v688q0 258 -203 258q-154 0 -211 -102.5t-57 -288.5v-555h-221z" />
<glyph unicode="i" horiz-adv-x="534" d="M143 1399q0 68 37 96.5t88 28.5t88 -29t37 -96q0 -66 -37 -95.5t-88 -29.5t-88 29.5t-37 95.5zM156 0v1104h223v-1104h-223z" />
<glyph unicode="j" horiz-adv-x="534" d="M-109 -293q31 -10 61 -15t66 -5q59 0 98.5 35.5t39.5 136.5v1245h223v-1256q0 -154 -76 -247t-248 -93q-47 0 -91 7.5t-73 17.5v174zM143 1399q0 68 37 96.5t88 28.5t88 -29t37 -96q0 -66 -37 -95.5t-88 -29.5t-88 29.5t-37 95.5z" />
<glyph unicode="k" horiz-adv-x="1095" d="M156 0v1556h221v-778q0 -41 -4 -98t-8 -102h8q16 31 55 81t68 82l309 363h254l-412 -473l438 -631h-262l-327 494l-119 -107v-387h-221z" />
<glyph unicode="l" horiz-adv-x="532" d="M156 0v1556h221v-1556h-221z" />
<glyph unicode="m" horiz-adv-x="1835" d="M156 0v1104h174l32 -148h11q45 86 128 127t179 41q238 0 315 -178h15q49 90 136 134t187 44q176 0 265.5 -96t89.5 -309v-719h-222v690q0 256 -188 256q-133 0 -189.5 -91t-56.5 -261v-594h-223v690q0 256 -186 256q-139 0 -192.5 -100.5t-53.5 -288.5v-557h-221z" />
<glyph unicode="n" horiz-adv-x="1220" d="M156 0v1104h174l30 -148h13q49 86 136 127t187 41q180 0 277.5 -96t97.5 -309v-719h-221v688q0 258 -205 258q-154 0 -211 -100.5t-57 -288.5v-557h-221z" />
<glyph unicode="o" horiz-adv-x="1179" d="M98 553q0 274 132 422.5t362 148.5q143 0 253.5 -66.5t174 -193.5t63.5 -311q0 -274 -134 -423.5t-363 -149.5q-141 0 -251 66.5t-173.5 194.5t-63.5 312zM328 553q0 -186 61.5 -290.5t200.5 -104.5t201.5 104.5t62.5 290.5q0 188 -63.5 289.5t-202.5 101.5 q-137 0 -198.5 -101.5t-61.5 -289.5z" />
<glyph unicode="p" horiz-adv-x="1198" d="M156 -492v1596h180l31 -148h10q45 70 117.5 119t193.5 49q188 0 300 -143t112 -428q0 -281 -116 -427t-300 -146q-119 0 -191.5 46t-115.5 109h-12q4 -37 8 -87t4 -89v-451h-221zM377 555q0 -193 54 -295t202 -102q121 0 180 110.5t59 288.5q0 180 -59 284.5t-184 104.5 q-137 0 -194.5 -88t-57.5 -270v-33z" />
<glyph unicode="q" horiz-adv-x="1198" d="M98 549q0 285 115 430t301 145q119 0 193.5 -48t119.5 -120h9l24 148h182v-1596h-221v469q0 39 2 86.5t8 83.5h-12q-43 -70 -117.5 -118.5t-193.5 -48.5q-182 0 -296 143t-114 426zM328 545q0 -186 59 -287.5t184 -101.5q141 0 199.5 87t58.5 267v37q0 197 -56 298 t-206 101q-123 0 -181 -106.5t-58 -294.5z" />
<glyph unicode="r" horiz-adv-x="827" d="M156 0v1104h174l28 -197h13q47 88 127 152.5t184 64.5q27 0 59.5 -2.5t55.5 -7.5l-23 -203q-23 6 -52.5 10.5t-55.5 4.5q-74 0 -140.5 -41t-107.5 -118t-41 -185v-582h-221z" />
<glyph unicode="s" horiz-adv-x="940" d="M94 827q0 143 110.5 220t291.5 77q94 0 179 -20.5t165 -56.5l-68 -166q-72 31 -143.5 52t-141.5 21q-178 0 -178 -116q0 -39 21.5 -69t76 -58.5t150.5 -67.5t163.5 -81t102.5 -101.5t35 -149.5q0 -164 -109.5 -247.5t-314.5 -83.5q-111 0 -190.5 16t-147.5 51v191 q72 -35 164 -63t176 -28q109 0 158 39t49 105q0 37 -19.5 66.5t-72.5 61.5t-154 73q-98 41 -165.5 83.5t-102.5 102t-35 149.5z" />
<glyph unicode="t" horiz-adv-x="751" d="M37 938v98l153 82l74 234h137v-248h293v-166h-293v-606q0 -90 41.5 -133t104.5 -43q88 0 155 26v-164q-35 -16 -91 -27t-117 -11q-88 0 -159 30.5t-114 106.5t-43 211v610h-141z" />
<glyph unicode="u" horiz-adv-x="1218" d="M147 381v723h224v-690q0 -256 202 -256q152 0 210.5 99t58.5 288v559h221v-1104h-174l-31 145h-12q-51 -86 -138 -125.5t-188 -39.5q-178 0 -275.5 95t-97.5 306z" />
<glyph unicode="v" horiz-adv-x="1032" d="M0 1104h236l206 -645q20 -63 41 -142t27 -131h8q6 51 26.5 130t43.5 143l207 645h237l-397 -1104h-240z" />
<glyph unicode="w" horiz-adv-x="1572" d="M20 1106h224l131 -582q20 -86 36.5 -172t22.5 -145h8q6 35 16.5 89t23 108.5t22.5 93.5l164 608h243l158 -608q16 -61 34.5 -146.5t24.5 -142.5h7q6 53 23.5 139t39.5 176l135 582h219l-282 -1104h-258l-156 610q-20 80 -38.5 157t-26.5 128h-9q-6 -51 -23.5 -129 t-39.5 -160l-164 -606h-254z" />
<glyph unicode="x" horiz-adv-x="1067" d="M27 0l366 563l-350 541h252l240 -397l235 397h254l-352 -541l368 -563h-252l-253 422l-259 -422h-249z" />
<glyph unicode="y" horiz-adv-x="1034" d="M2 1104h238l211 -627q49 -143 67 -268h6q10 53 28.5 125t41.5 145l201 625h239l-442 -1254q-57 -160 -152.5 -251t-255.5 -91q-45 0 -80.5 5.5t-62.5 11.5v172q20 -4 51 -8t64 -4q90 0 141 54t80 142l41 119z" />
<glyph unicode="z" horiz-adv-x="921" d="M66 0v137l524 799h-492v168h742v-154l-514 -782h528v-168h-788z" />
<glyph unicode="{" horiz-adv-x="751" d="M49 481v176q111 2 173.5 44t62.5 143v307q0 160 98 235.5t303 75.5v-170q-88 -2 -142.5 -42t-54.5 -136v-295q0 -205 -215 -241v-13q215 -41 215 -241v-301q0 -96 54.5 -135.5t142.5 -41.5v-170q-209 2 -305 77t-96 235v305q0 102 -63.5 145t-172.5 43z" />
<glyph unicode="|" horiz-adv-x="1046" d="M438 -485v2039h170v-2039h-170z" />
<glyph unicode="}" horiz-adv-x="751" d="M66 -154q90 2 144 42t54 137v297q0 205 213 241v12q-213 37 -213 242v299q0 96 -54 135t-144 41v170q209 -2 305 -76.5t96 -234.5v-305q0 -100 62.5 -144.5t172.5 -44.5v-176q-111 0 -173 -42t-62 -144v-307q0 -160 -99 -236t-302 -76v170z" />
<glyph unicode="~" horiz-adv-x="1099" d="M88 578v180q96 109 236 108q55 0 111.5 -12t146.5 -53q70 -33 116.5 -44.5t89.5 -11.5q53 0 114 35t106 86v-178q-94 -111 -236 -110q-55 0 -111.5 12t-144.5 53q-70 33 -118 44t-91 11q-53 0 -112.5 -34.5t-106.5 -85.5z" />
<glyph unicode="&#xa1;" horiz-adv-x="532" d="M125 971q0 78 42 112.5t99 34.5t98.5 -34.5t41.5 -112.5q0 -82 -41 -115t-99 -33q-57 0 -99 33t-42 115zM133 -371l43 1026h180l39 -1026h-262z" />
<glyph unicode="&#xa2;" horiz-adv-x="1105" d="M160 741q0 188 48 307t134 182.5t201 82.5v170h147v-162q76 -2 145.5 -20.5t122.5 -43.5l-65 -176q-57 23 -118.5 40.5t-117.5 17.5q-270 0 -270 -396q0 -199 67.5 -291t198.5 -92q84 0 149.5 18.5t131.5 47.5v-186q-55 -29 -112.5 -44.5t-131.5 -19.5v-196h-147v202 q-176 27 -279.5 157t-103.5 402z" />
<glyph unicode="&#xa3;" horiz-adv-x="1105" d="M72 0v180q80 27 130 88.5t50 190.5v194h-176v162h176v270q0 195 111.5 295.5t289.5 100.5q102 0 191.5 -23.5t159.5 -58.5l-72 -170q-61 29 -130 51.5t-138 22.5q-90 0 -141.5 -53.5t-51.5 -178.5v-256h375v-162h-375v-192q0 -121 -42 -179.5t-93 -88.5h711v-193h-975z " />
<glyph unicode="&#xa4;" horiz-adv-x="1099" d="M109 1075l114 111l123 -129q92 66 203 65q109 0 199 -65l124 129l115 -109l-125 -135q27 -45 44.5 -102.5t17.5 -116.5q0 -125 -62 -221l123 -131l-113 -111l-124 129q-43 -29 -93.5 -46t-105.5 -17q-117 0 -205 65l-121 -129l-112 111l122 131q-29 47 -44 103.5 t-15 115.5t15.5 114.5t43.5 102.5zM332 723q0 -100 62.5 -171t154.5 -71q90 0 153.5 71t63.5 171q0 102 -63.5 174t-153.5 72q-92 0 -154.5 -72t-62.5 -174z" />
<glyph unicode="&#xa5;" d="M18 1462h234l299 -682l299 682h231l-374 -762h219v-145h-269v-158h269v-145h-269v-252h-213v252h-272v145h272v158h-272v145h217z" />
<glyph unicode="&#xa6;" horiz-adv-x="1046" d="M438 305h170v-790h-170v790zM438 764v790h170v-790h-170z" />
<glyph unicode="&#xa7;" horiz-adv-x="974" d="M111 57v170q68 -35 158.5 -61.5t172.5 -26.5q127 0 173.5 41t46.5 96q0 37 -16.5 66t-65 57.5t-144.5 67.5q-100 41 -169.5 85t-107.5 104.5t-38 150.5q0 96 45 158.5t102 95.5q-66 41 -102.5 97t-36.5 138q0 125 99.5 198t279.5 73q104 0 182 -20.5t152 -53.5l-62 -154 q-66 29 -132 51.5t-148 22.5q-98 0 -139.5 -29.5t-41.5 -83.5q0 -55 49.5 -94t180.5 -92q147 -57 228 -133t81 -199q0 -102 -42 -166.5t-95 -101.5q63 -39 98 -92t35 -131q0 -143 -110.5 -223t-307.5 -80q-102 0 -182 18.5t-143 50.5zM297 827q0 -70 57.5 -121t192.5 -110 l33 -12q37 25 68.5 66.5t31.5 105.5q0 72 -55.5 126t-210.5 111q-45 -14 -81 -58.5t-36 -107.5z" />
<glyph unicode="&#xa8;" horiz-adv-x="1132" d="M270 1397q0 59 31 84.5t78 25.5q43 0 75.5 -25.5t32.5 -84.5q0 -55 -32.5 -83t-75.5 -28q-47 0 -78 28t-31 83zM647 1397q0 59 33 84.5t76 25.5q45 0 77.5 -25.5t32.5 -84.5q0 -55 -32.5 -83t-77.5 -28q-43 0 -76 28t-33 83z" />
<glyph unicode="&#xa9;" horiz-adv-x="1599" d="M92 731q0 156 54.5 292t151.5 239.5t225 162t276 58.5q147 0 275 -58.5t225.5 -162t151.5 -239.5t54 -292t-54 -292t-151.5 -239.5t-225.5 -161.5t-275 -58t-275.5 58t-225.5 161.5t-151.5 239.5t-54.5 292zM203 731q0 -133 46 -249.5t128 -205t190.5 -138.5t231.5 -50 t231.5 50t191.5 138.5t129 205t46 249.5t-46 250t-129 205t-191.5 138t-231.5 50t-231.5 -50t-190.5 -138t-128 -205t-46 -250zM444 731q0 133 45.5 236.5t132.5 162t214 58.5t243 -62l-59 -125q-96 54 -182 54q-109 0 -168.5 -87t-59.5 -237q0 -158 53.5 -241.5 t174.5 -83.5q47 0 103 13t106 34v-131q-49 -23 -98.5 -36.5t-119.5 -13.5q-195 0 -290 126t-95 333z" />
<glyph unicode="&#xaa;" horiz-adv-x="708" d="M55 983q0 106 79 159.5t235 59.5l100 4v37q0 61 -37 88t-92 27q-51 0 -99 -15.5t-98 -39.5l-49 110q53 29 119.5 47.5t146.5 18.5q258 0 258 -244v-449h-106l-29 95q-39 -47 -93 -77t-128 -30q-94 0 -150.5 51.5t-56.5 157.5zM209 985q0 -49 25.5 -70.5t66.5 -21.5 q86 0 127 47t41 123v43l-90 -4q-100 -4 -135 -36t-35 -81z" />
<glyph unicode="&#xab;" horiz-adv-x="1071" d="M76 532v27l336 424l157 -86l-264 -350l264 -350l-157 -88zM502 532v27l336 424l157 -86l-266 -350l266 -350l-157 -88z" />
<glyph unicode="&#xac;" horiz-adv-x="1099" d="M88 639v166h920v-547h-168v381h-752z" />
<glyph unicode="&#xad;" horiz-adv-x="659" d="M68 457v184h483v-184h-483z" />
<glyph unicode="&#xae;" horiz-adv-x="1599" d="M92 731q0 156 54.5 292t151.5 239.5t225 162t276 58.5q147 0 275 -58.5t225.5 -162t151.5 -239.5t54 -292t-54 -292t-151.5 -239.5t-225.5 -161.5t-275 -58t-275.5 58t-225.5 161.5t-151.5 239.5t-54.5 292zM203 731q0 -133 46 -249.5t128 -205t190.5 -138.5t231.5 -50 t231.5 50t191.5 138.5t129 205t46 249.5t-46 250t-129 205t-191.5 138t-231.5 50t-231.5 -50t-190.5 -138t-128 -205t-46 -250zM528 283v895h250q164 0 240 -67t76 -198q0 -96 -45 -152t-103 -81l217 -397h-180l-184 354h-107v-354h-164zM692 764h84q72 0 113 40t41 105 q0 72 -39 105t-117 33h-82v-283z" />
<glyph unicode="&#xaf;" horiz-adv-x="962" d="M-6 1556v154h975v-154h-975z" />
<glyph unicode="&#xb0;" horiz-adv-x="821" d="M100 1159q0 90 42 164t113 117t157 43q84 0 154.5 -43t112.5 -117t42 -164t-42 -163.5t-112.5 -116.5t-154.5 -43q-86 0 -157 43t-113 116.5t-42 163.5zM246 1159q0 -76 49 -129t117 -53q70 0 118 53t48 129t-48.5 129t-117.5 53q-68 0 -117 -53t-49 -129z" />
<glyph unicode="&#xb1;" horiz-adv-x="1099" d="M88 0v168h920v-168h-920zM88 662v165h375v414h170v-414h375v-165h-375v-412h-170v412h-375z" />
<glyph unicode="&#xb2;" horiz-adv-x="698" d="M51 852v127l215 227q70 74 108 121t52 84t14 80q0 57 -29.5 87t-80.5 30q-49 0 -94.5 -23.5t-94.5 -64.5l-88 110q57 53 129 85t164 32q125 0 196.5 -64.5t71.5 -179.5q0 -98 -58 -177t-163 -187l-133 -138h361v-149h-570z" />
<glyph unicode="&#xb3;" horiz-adv-x="698" d="M43 897v147q129 -76 258 -75q168 0 168 141q0 131 -186 131h-109v125h100q94 0 133 38t39 95t-32.5 86t-85.5 29q-55 0 -103.5 -20.5t-99.5 -57.5l-80 109q57 47 127 74.5t164 27.5q133 0 204.5 -62.5t71.5 -164.5q0 -78 -40 -131.5t-105 -73.5v-8q82 -16 127 -71.5 t45 -133.5q0 -119 -84 -192.5t-254 -73.5q-72 0 -135.5 14t-122.5 47z" />
<glyph unicode="&#xb4;" horiz-adv-x="620" d="M82 1241v25q29 37 66.5 91t73.5 110.5t61 101.5h256v-21q-31 -37 -86.5 -95t-117 -116.5t-108.5 -95.5h-145z" />
<glyph unicode="&#xb5;" horiz-adv-x="1228" d="M156 -492v1596h221v-692q0 -254 207 -254q150 0 207 99t57 288v559h225v-1104h-174l-35 147h-10q-45 -82 -113.5 -124.5t-165.5 -42.5q-68 0 -116.5 24.5t-83.5 67.5h-8q4 -35 7 -101.5t3 -142.5v-320h-221z" />
<glyph unicode="&#xb6;" horiz-adv-x="1257" d="M104 1042q0 195 53.5 307.5t148.5 159.5t222 47h545v-1816h-129v1677h-182v-1677h-129v819q-27 -10 -62.5 -14t-70.5 -4q-119 0 -208 47t-138.5 157.5t-49.5 296.5z" />
<glyph unicode="&#xb7;" horiz-adv-x="559" d="M125 723q0 80 40 112.5t99 32.5q57 0 99.5 -32.5t42.5 -112.5t-42 -115t-100 -35q-59 0 -99 35t-40 115z" />
<glyph unicode="&#xb8;" horiz-adv-x="454" d="M27 -350q23 -4 53.5 -8t58.5 -4q55 0 87 17t32 64q0 49 -45 75t-121 36l76 170h137l-39 -94q63 -18 113.5 -60t50.5 -120q0 -102 -69.5 -160t-210.5 -58q-39 0 -70 4.5t-53 8.5v129z" />
<glyph unicode="&#xb9;" horiz-adv-x="698" d="M66 1526l266 203h160v-877h-175v530q0 49 1 100.5t6 88.5q-16 -16 -38 -39t-42 -39l-94 -76z" />
<glyph unicode="&#xba;" horiz-adv-x="733" d="M57 1128q0 170 84 260.5t228 90.5q137 0 223 -90.5t86 -260.5t-85 -262t-228 -92q-133 0 -220.5 91t-87.5 263zM211 1128q0 -115 36 -172t120 -57q82 0 118.5 57.5t36.5 171.5q0 115 -36.5 170.5t-118.5 55.5t-119 -55.5t-37 -170.5z" />
<glyph unicode="&#xbb;" horiz-adv-x="1071" d="M76 197l264 350l-264 350l157 86l336 -424v-27l-336 -423zM500 197l266 350l-266 350l157 86l338 -424v-27l-338 -423z" />
<glyph unicode="&#xbc;" horiz-adv-x="1507" d="M49 1260l266 202h160v-876h-172v530q0 49 2 100.5t4 88.5q-14 -16 -36.5 -39t-45.5 -39l-94 -76zM268 0l803 1462h182l-804 -1462h-181zM827 184v119l369 580h178v-564h117v-135h-117v-184h-178v184h-369zM981 319h215v183q0 43 2 97t4 103q-12 -25 -37.5 -74.5 t-46.5 -82.5z" />
<glyph unicode="&#xbd;" horiz-adv-x="1568" d="M35 1260l266 202h160v-876h-172v530q0 49 1 100.5t5 88.5q-16 -16 -37.5 -39t-44.5 -39l-94 -76zM233 0l805 1462h181l-803 -1462h-183zM922 0v127l215 227q72 74 108.5 121t51 84t14.5 80q0 57 -31 87t-80 30q-51 0 -96 -23.5t-94 -64.5l-86 110q59 53 130.5 85 t159.5 32q125 0 198 -64.5t73 -179.5q0 -98 -52.5 -178t-156.5 -182l-146 -141h361v-150h-569z" />
<glyph unicode="&#xbe;" horiz-adv-x="1566" d="M47 631v147q129 -76 258 -76q170 0 170 142q0 131 -188 131h-109v125h101q94 0 133 38t39 95t-33 86t-86 29t-100.5 -20.5t-100.5 -57.5l-82 108q61 47 131 75t160 28q133 0 205.5 -62.5t72.5 -165.5q0 -78 -40.5 -131t-104.5 -73v-9q80 -16 125 -71.5t45 -132.5 q0 -119 -83 -193t-255 -74q-143 0 -258 62zM350 0l805 1462h182l-805 -1462h-182zM889 184v119l366 580h179v-564h116v-135h-116v-184h-179v184h-366zM1040 319h215v183q0 43 1 97t6 103q-10 -25 -37 -74.5t-47 -82.5z" />
<glyph unicode="&#xbf;" horiz-adv-x="915" d="M88 -32q0 90 26.5 152.5t76.5 116.5t122 116q61 53 93 92t44 78t12 92v41h181v-60q0 -113 -35 -185.5t-131 -154.5q-68 -59 -107 -101t-55 -84t-16 -97q0 -88 54 -135t150 -47q90 0 165 25.5t149 62.5l80 -164q-84 -47 -185.5 -78t-224.5 -31q-190 0 -294.5 98.5 t-104.5 262.5zM405 969q0 80 42 115t97 35q59 0 100.5 -35t41.5 -115t-41 -112.5t-101 -32.5q-55 0 -97 32.5t-42 112.5z" />
<glyph unicode="&#xc0;" horiz-adv-x="1273" d="M0 0l514 1468h246l512 -1468h-238l-137 422h-522l-137 -422h-238zM317 1906v21h256q23 -45 59.5 -101.5t73.5 -110.5t68 -91v-25h-150q-45 37 -106.5 95.5t-116.5 116.5t-84 95zM438 614h400l-136 412q-6 25 -19 69t-26.5 91t-21.5 82q-14 -70 -31.5 -134.5t-30.5 -107.5 z" />
<glyph unicode="&#xc1;" horiz-adv-x="1273" d="M0 0l514 1468h246l512 -1468h-238l-137 422h-522l-137 -422h-238zM438 614h400l-136 412q-6 25 -19 69t-26.5 91t-21.5 82q-14 -70 -31.5 -134.5t-30.5 -107.5zM467 1599v25q29 37 66.5 91t73.5 110.5t61 101.5h256v-21q-31 -37 -86.5 -95t-117 -116.5t-108.5 -95.5h-145 z" />
<glyph unicode="&#xc2;" horiz-adv-x="1273" d="M0 0l514 1468h246l512 -1468h-238l-137 422h-522l-137 -422h-238zM279 1599v25q37 39 82 92t88 109.5t70 101.5h233q25 -45 68 -101.5t90 -110.5t82 -91v-25h-150q-51 33 -104.5 80t-104.5 102q-51 -55 -102 -102t-103 -80h-149zM438 614h400l-136 412q-6 25 -19 69 t-26.5 91t-21.5 82q-14 -70 -31.5 -134.5t-30.5 -107.5z" />
<glyph unicode="&#xc3;" horiz-adv-x="1273" d="M0 0l514 1468h246l512 -1468h-238l-137 422h-522l-137 -422h-238zM268 1599q12 131 70.5 203t152.5 72q55 0 106.5 -29t99.5 -56.5t91 -27.5q72 0 96 115h119q-12 -131 -71.5 -203t-151.5 -72q-53 0 -105.5 27.5t-100.5 56.5t-91 29q-76 0 -96 -115h-119zM438 614h400 l-136 412q-6 25 -19 69t-26.5 91t-21.5 82q-14 -70 -31.5 -134.5t-30.5 -107.5z" />
<glyph unicode="&#xc4;" horiz-adv-x="1273" d="M0 0l514 1468h246l512 -1468h-238l-137 422h-522l-137 -422h-238zM338 1755q0 59 31 84.5t78 25.5q43 0 75.5 -25.5t32.5 -84.5q0 -55 -32.5 -83t-75.5 -28q-47 0 -78 28t-31 83zM438 614h400l-136 412q-6 25 -19 69t-26.5 91t-21.5 82q-14 -70 -31.5 -134.5 t-30.5 -107.5zM715 1755q0 59 33 84.5t76 25.5q45 0 77.5 -25.5t32.5 -84.5q0 -55 -32.5 -83t-77.5 -28q-43 0 -76 28t-33 83z" />
<glyph unicode="&#xc5;" horiz-adv-x="1273" d="M0 0l514 1468h246l512 -1468h-238l-137 422h-522l-137 -422h-238zM404 1579q0 102 60.5 162t158.5 60q96 0 161.5 -58.5t65.5 -161.5q0 -106 -65.5 -165.5t-161.5 -59.5q-98 0 -158.5 58.5t-60.5 164.5zM438 614h400l-136 412q-6 25 -19 69t-26.5 91t-21.5 82 q-14 -70 -31.5 -134.5t-30.5 -107.5zM523 1579q0 -110 100 -110q45 0 72.5 29.5t27.5 80.5t-28.5 80t-71.5 29q-41 0 -70.5 -28.5t-29.5 -80.5z" />
<glyph unicode="&#xc6;" horiz-adv-x="1740" d="M-2 0l635 1462h997v-188h-526v-418h491v-186h-491v-480h526v-190h-751v422h-467l-176 -422h-238zM494 614h385v656h-113z" />
<glyph unicode="&#xc7;" horiz-adv-x="1222" d="M113 731q0 221 75.5 390t223 265.5t360.5 96.5q102 0 204.5 -23.5t184.5 -66.5l-80 -185q-68 33 -145.5 58.5t-165.5 25.5q-197 0 -309.5 -150.5t-112.5 -412.5q0 -260 104.5 -409.5t317.5 -149.5q90 0 172 17.5t166 45.5v-190q-82 -33 -167 -48t-198 -15q-213 0 -353 93 t-208.5 262t-68.5 396zM574 -350q23 -4 53.5 -8t58.5 -4q55 0 87 17t32 64q0 49 -45 75t-121 36l76 170h137l-39 -94q63 -18 113.5 -60t50.5 -120q0 -102 -69.5 -160t-210.5 -58q-39 0 -70 4.5t-53 8.5v129z" />
<glyph unicode="&#xc8;" horiz-adv-x="1069" d="M178 0v1462h780v-188h-552v-418h518v-186h-518v-480h552v-190h-780zM264 1906v21h256q23 -45 59.5 -101.5t73.5 -110.5t68 -91v-25h-150q-45 37 -106.5 95.5t-116.5 116.5t-84 95z" />
<glyph unicode="&#xc9;" horiz-adv-x="1069" d="M178 0v1462h780v-188h-552v-418h518v-186h-518v-480h552v-190h-780zM414 1599v25q29 37 66.5 91t73.5 110.5t61 101.5h256v-21q-31 -37 -86.5 -95t-117 -116.5t-108.5 -95.5h-145z" />
<glyph unicode="&#xca;" horiz-adv-x="1069" d="M178 0v1462h780v-188h-552v-418h518v-186h-518v-480h552v-190h-780zM226 1599v25q37 39 82 92t88 109.5t70 101.5h233q25 -45 68 -101.5t90 -110.5t82 -91v-25h-150q-51 33 -104.5 80t-104.5 102q-51 -55 -102 -102t-103 -80h-149z" />
<glyph unicode="&#xcb;" horiz-adv-x="1069" d="M178 0v1462h780v-188h-552v-418h518v-186h-518v-480h552v-190h-780zM285 1755q0 59 31 84.5t78 25.5q43 0 75.5 -25.5t32.5 -84.5q0 -55 -32.5 -83t-75.5 -28q-47 0 -78 28t-31 83zM662 1755q0 59 33 84.5t76 25.5q45 0 77.5 -25.5t32.5 -84.5q0 -55 -32.5 -83t-77.5 -28 q-43 0 -76 28t-33 83z" />
<glyph unicode="&#xcc;" horiz-adv-x="700" d="M34 1906v21h256q23 -45 59.5 -101.5t73.5 -110.5t68 -91v-25h-150q-45 37 -106.5 95.5t-116.5 116.5t-84 95zM72 0v127l164 51v1104l-164 53v127h555v-127l-164 -53v-1104l164 -51v-127h-555z" />
<glyph unicode="&#xcd;" horiz-adv-x="700" d="M72 0v127l164 51v1104l-164 53v127h555v-127l-164 -53v-1104l164 -51v-127h-555zM184 1599v25q29 37 66.5 91t73.5 110.5t61 101.5h256v-21q-31 -37 -86.5 -95t-117 -116.5t-108.5 -95.5h-145z" />
<glyph unicode="&#xce;" horiz-adv-x="700" d="M-4 1599v25q37 39 82 92t88 109.5t70 101.5h233q25 -45 68 -101.5t90 -110.5t82 -91v-25h-150q-51 33 -104.5 80t-104.5 102q-51 -55 -102 -102t-103 -80h-149zM72 0v127l164 51v1104l-164 53v127h555v-127l-164 -53v-1104l164 -51v-127h-555z" />
<glyph unicode="&#xcf;" horiz-adv-x="700" d="M55 1755q0 59 31 84.5t78 25.5q43 0 75.5 -25.5t32.5 -84.5q0 -55 -32.5 -83t-75.5 -28q-47 0 -78 28t-31 83zM72 0v127l164 51v1104l-164 53v127h555v-127l-164 -53v-1104l164 -51v-127h-555zM432 1755q0 59 33 84.5t76 25.5q45 0 77.5 -25.5t32.5 -84.5 q0 -55 -32.5 -83t-77.5 -28q-43 0 -76 28t-33 83z" />
<glyph unicode="&#xd0;" horiz-adv-x="1411" d="M51 629v188h137v645h424q211 0 364.5 -82t237.5 -241.5t84 -393.5q0 -371 -193.5 -558t-535.5 -187h-381v629h-137zM414 186h149q498 0 498 553q0 276 -121 406.5t-342 130.5h-184v-459h297v-188h-297v-443z" />
<glyph unicode="&#xd1;" horiz-adv-x="1507" d="M178 0v1462h277l671 -1175h9q-2 43 -5.5 108.5t-6.5 140t-3 140.5v786h207v-1462h-278l-674 1182h-8q4 -82 10 -187.5t8 -216.5v-778h-207zM387 1599q12 131 70.5 203t152.5 72q55 0 106.5 -29t99.5 -56.5t91 -27.5q72 0 96 115h119q-12 -131 -71.5 -203t-151.5 -72 q-53 0 -105.5 27.5t-100.5 56.5t-91 29q-76 0 -96 -115h-119z" />
<glyph unicode="&#xd2;" horiz-adv-x="1513" d="M113 735q0 225 69.5 394t214 262.5t363.5 93.5q213 0 355 -93.5t214 -262.5t72 -396t-72 -396t-215 -263t-356 -94q-219 0 -362.5 94t-213 264t-69.5 397zM352 733q0 -262 97.5 -413.5t308.5 -151.5q213 0 308 151.5t95 413.5t-95 411.5t-306 149.5t-309.5 -149.5 t-98.5 -411.5zM440 1929v21h256q23 -45 59.5 -101.5t73.5 -110.5t68 -91v-25h-150q-45 37 -106.5 95.5t-116.5 116.5t-84 95z" />
<glyph unicode="&#xd3;" horiz-adv-x="1513" d="M113 735q0 225 69.5 394t214 262.5t363.5 93.5q213 0 355 -93.5t214 -262.5t72 -396t-72 -396t-215 -263t-356 -94q-219 0 -362.5 94t-213 264t-69.5 397zM352 733q0 -262 97.5 -413.5t308.5 -151.5q213 0 308 151.5t95 413.5t-95 411.5t-306 149.5t-309.5 -149.5 t-98.5 -411.5zM590 1622v25q29 37 66.5 91t73.5 110.5t61 101.5h256v-21q-31 -37 -86.5 -95t-117 -116.5t-108.5 -95.5h-145z" />
<glyph unicode="&#xd4;" horiz-adv-x="1513" d="M113 735q0 225 69.5 394t214 262.5t363.5 93.5q213 0 355 -93.5t214 -262.5t72 -396t-72 -396t-215 -263t-356 -94q-219 0 -362.5 94t-213 264t-69.5 397zM352 733q0 -262 97.5 -413.5t308.5 -151.5q213 0 308 151.5t95 413.5t-95 411.5t-306 149.5t-309.5 -149.5 t-98.5 -411.5zM402 1622v25q37 39 82 92t88 109.5t70 101.5h233q25 -45 68 -101.5t90 -110.5t82 -91v-25h-150q-51 33 -104.5 80t-104.5 102q-51 -55 -102 -102t-103 -80h-149z" />
<glyph unicode="&#xd5;" horiz-adv-x="1513" d="M113 735q0 225 69.5 394t214 262.5t363.5 93.5q213 0 355 -93.5t214 -262.5t72 -396t-72 -396t-215 -263t-356 -94q-219 0 -362.5 94t-213 264t-69.5 397zM352 733q0 -262 97.5 -413.5t308.5 -151.5q213 0 308 151.5t95 413.5t-95 411.5t-306 149.5t-309.5 -149.5 t-98.5 -411.5zM391 1622q12 131 70.5 203t152.5 72q55 0 106.5 -29t99.5 -56.5t91 -27.5q72 0 96 115h119q-12 -131 -71.5 -203t-151.5 -72q-53 0 -105.5 27.5t-100.5 56.5t-91 29q-76 0 -96 -115h-119z" />
<glyph unicode="&#xd6;" horiz-adv-x="1513" d="M113 735q0 225 69.5 394t214 262.5t363.5 93.5q213 0 355 -93.5t214 -262.5t72 -396t-72 -396t-215 -263t-356 -94q-219 0 -362.5 94t-213 264t-69.5 397zM352 733q0 -262 97.5 -413.5t308.5 -151.5q213 0 308 151.5t95 413.5t-95 411.5t-306 149.5t-309.5 -149.5 t-98.5 -411.5zM461 1778q0 59 31 84.5t78 25.5q43 0 75.5 -25.5t32.5 -84.5q0 -55 -32.5 -83t-75.5 -28q-47 0 -78 28t-31 83zM838 1778q0 59 33 84.5t76 25.5q45 0 77.5 -25.5t32.5 -84.5q0 -55 -32.5 -83t-77.5 -28q-43 0 -76 28t-33 83z" />
<glyph unicode="&#xd7;" horiz-adv-x="1099" d="M121 1057l119 119l307 -334l309 334l119 -117l-309 -336l307 -336l-117 -117l-311 332l-303 -332l-119 119l305 334z" />
<glyph unicode="&#xd8;" horiz-adv-x="1513" d="M113 735q0 225 69.5 394t214 262.5t363.5 93.5q96 0 180 -23.5t152 -62.5l84 133l135 -90l-92 -142q182 -200 182 -567q0 -227 -72 -396t-215 -263t-356 -94q-203 0 -338 88l-90 -140l-133 90l92 148q-88 100 -132 244.5t-44 324.5zM352 733q0 -117 17.5 -212t56.5 -165 l549 875q-88 63 -215 63q-211 0 -309.5 -149.5t-98.5 -411.5zM537 236q86 -68 221 -68q213 0 308 151.5t95 413.5q0 117 -18.5 212t-57.5 167z" />
<glyph unicode="&#xd9;" horiz-adv-x="1423" d="M166 520v942h227v-932q0 -362 322 -362q168 0 241.5 98.5t73.5 265.5v930h227v-946q0 -152 -60 -273.5t-182 -192t-308 -70.5q-266 0 -403.5 148t-137.5 392zM395 1906v21h256q23 -45 59.5 -101.5t73.5 -110.5t68 -91v-25h-150q-45 37 -106.5 95.5t-116.5 116.5t-84 95z " />
<glyph unicode="&#xda;" horiz-adv-x="1423" d="M166 520v942h227v-932q0 -362 322 -362q168 0 241.5 98.5t73.5 265.5v930h227v-946q0 -152 -60 -273.5t-182 -192t-308 -70.5q-266 0 -403.5 148t-137.5 392zM545 1599v25q29 37 66.5 91t73.5 110.5t61 101.5h256v-21q-31 -37 -86.5 -95t-117 -116.5t-108.5 -95.5h-145z " />
<glyph unicode="&#xdb;" horiz-adv-x="1423" d="M166 520v942h227v-932q0 -362 322 -362q168 0 241.5 98.5t73.5 265.5v930h227v-946q0 -152 -60 -273.5t-182 -192t-308 -70.5q-266 0 -403.5 148t-137.5 392zM357 1599v25q37 39 82 92t88 109.5t70 101.5h233q25 -45 68 -101.5t90 -110.5t82 -91v-25h-150 q-51 33 -104.5 80t-104.5 102q-51 -55 -102 -102t-103 -80h-149z" />
<glyph unicode="&#xdc;" horiz-adv-x="1423" d="M166 520v942h227v-932q0 -362 322 -362q168 0 241.5 98.5t73.5 265.5v930h227v-946q0 -152 -60 -273.5t-182 -192t-308 -70.5q-266 0 -403.5 148t-137.5 392zM416 1755q0 59 31 84.5t78 25.5q43 0 75.5 -25.5t32.5 -84.5q0 -55 -32.5 -83t-75.5 -28q-47 0 -78 28t-31 83z M793 1755q0 59 33 84.5t76 25.5q45 0 77.5 -25.5t32.5 -84.5q0 -55 -32.5 -83t-77.5 -28q-43 0 -76 28t-33 83z" />
<glyph unicode="&#xdd;" horiz-adv-x="1138" d="M0 1462h246l323 -684l326 684h244l-455 -895v-567h-227v559zM401 1599v25q29 37 66.5 91t73.5 110.5t61 101.5h256v-21q-31 -37 -86.5 -95t-117 -116.5t-108.5 -95.5h-145z" />
<glyph unicode="&#xde;" horiz-adv-x="1181" d="M178 0v1462h228v-245h169q270 0 392.5 -117t122.5 -322q0 -123 -50.5 -229.5t-168 -173t-320.5 -66.5h-145v-309h-228zM406 494h118q168 0 251 64.5t83 213.5q0 131 -71.5 194.5t-231.5 63.5h-149v-536z" />
<glyph unicode="&#xdf;" horiz-adv-x="1280" d="M156 0v1180q0 139 61.5 224t165.5 124t238 39q201 0 328.5 -78t127.5 -232q0 -72 -26.5 -125t-66.5 -93t-81 -71.5t-67.5 -61t-26.5 -64.5q0 -27 15.5 -50.5t54.5 -53t110 -79.5q100 -70 156.5 -145.5t56.5 -196.5q0 -174 -104.5 -255.5t-280.5 -81.5q-96 0 -165.5 16 t-123.5 51v186q47 -33 122 -59.5t147 -26.5q92 0 136 42t44 118q0 45 -15.5 80t-54.5 70t-108 82q-119 80 -165 140t-46 142q0 63 26.5 108.5t65.5 79t78 65.5t65.5 70t26.5 91q0 78 -64.5 117t-164.5 39t-172 -46.5t-72 -168.5v-1176h-221z" />
<glyph unicode="&#xe0;" horiz-adv-x="1116" d="M84 313q0 334 485 353l176 6v61q0 121 -50 171t-140 50q-76 0 -150.5 -24.5t-142.5 -59.5l-67 158q76 41 172.5 68.5t205.5 27.5q195 0 294.5 -91t99.5 -285v-748h-158l-43 154h-8q-68 -90 -142.5 -132t-205.5 -42q-139 0 -232.5 80.5t-93.5 252.5zM241 1554v21h256 q23 -45 59.5 -101.5t73.5 -110.5t68 -91v-25h-150q-45 37 -106.5 95.5t-116.5 116.5t-84 95zM313 311q0 -86 46.5 -125t119.5 -39q113 0 189.5 72t76.5 215v96l-133 -4q-170 -8 -234.5 -63t-64.5 -152z" />
<glyph unicode="&#xe1;" horiz-adv-x="1116" d="M84 313q0 334 485 353l176 6v61q0 121 -50 171t-140 50q-76 0 -150.5 -24.5t-142.5 -59.5l-67 158q76 41 172.5 68.5t205.5 27.5q195 0 294.5 -91t99.5 -285v-748h-158l-43 154h-8q-68 -90 -142.5 -132t-205.5 -42q-139 0 -232.5 80.5t-93.5 252.5zM313 311 q0 -86 46.5 -125t119.5 -39q113 0 189.5 72t76.5 215v96l-133 -4q-170 -8 -234.5 -63t-64.5 -152zM391 1247v25q29 37 66.5 91t73.5 110.5t61 101.5h256v-21q-31 -37 -86.5 -95t-117 -116.5t-108.5 -95.5h-145z" />
<glyph unicode="&#xe2;" horiz-adv-x="1116" d="M84 313q0 334 485 353l176 6v61q0 121 -50 171t-140 50q-76 0 -150.5 -24.5t-142.5 -59.5l-67 158q76 41 172.5 68.5t205.5 27.5q195 0 294.5 -91t99.5 -285v-748h-158l-43 154h-8q-68 -90 -142.5 -132t-205.5 -42q-139 0 -232.5 80.5t-93.5 252.5zM203 1247v25 q37 39 82 92t88 109.5t70 101.5h233q25 -45 68 -101.5t90 -110.5t82 -91v-25h-150q-51 33 -104.5 80t-104.5 102q-51 -55 -102 -102t-103 -80h-149zM313 311q0 -86 46.5 -125t119.5 -39q113 0 189.5 72t76.5 215v96l-133 -4q-170 -8 -234.5 -63t-64.5 -152z" />
<glyph unicode="&#xe3;" horiz-adv-x="1116" d="M84 313q0 334 485 353l176 6v61q0 121 -50 171t-140 50q-76 0 -150.5 -24.5t-142.5 -59.5l-67 158q76 41 172.5 68.5t205.5 27.5q195 0 294.5 -91t99.5 -285v-748h-158l-43 154h-8q-68 -90 -142.5 -132t-205.5 -42q-139 0 -232.5 80.5t-93.5 252.5zM192 1247 q12 131 70.5 203t152.5 72q55 0 106.5 -29t99.5 -56.5t91 -27.5q72 0 96 115h119q-12 -131 -71.5 -203t-151.5 -72q-53 0 -105.5 27.5t-100.5 56.5t-91 29q-76 0 -96 -115h-119zM313 311q0 -86 46.5 -125t119.5 -39q113 0 189.5 72t76.5 215v96l-133 -4q-170 -8 -234.5 -63 t-64.5 -152z" />
<glyph unicode="&#xe4;" horiz-adv-x="1116" d="M84 313q0 334 485 353l176 6v61q0 121 -50 171t-140 50q-76 0 -150.5 -24.5t-142.5 -59.5l-67 158q76 41 172.5 68.5t205.5 27.5q195 0 294.5 -91t99.5 -285v-748h-158l-43 154h-8q-68 -90 -142.5 -132t-205.5 -42q-139 0 -232.5 80.5t-93.5 252.5zM262 1403 q0 59 31 84.5t78 25.5q43 0 75.5 -25.5t32.5 -84.5q0 -55 -32.5 -83t-75.5 -28q-47 0 -78 28t-31 83zM313 311q0 -86 46.5 -125t119.5 -39q113 0 189.5 72t76.5 215v96l-133 -4q-170 -8 -234.5 -63t-64.5 -152zM639 1403q0 59 33 84.5t76 25.5q45 0 77.5 -25.5t32.5 -84.5 q0 -55 -32.5 -83t-77.5 -28q-43 0 -76 28t-33 83z" />
<glyph unicode="&#xe5;" horiz-adv-x="1116" d="M84 313q0 334 485 353l176 6v61q0 121 -50 171t-140 50q-76 0 -150.5 -24.5t-142.5 -59.5l-67 158q76 41 172.5 68.5t205.5 27.5q195 0 294.5 -91t99.5 -285v-748h-158l-43 154h-8q-68 -90 -142.5 -132t-205.5 -42q-139 0 -232.5 80.5t-93.5 252.5zM313 311 q0 -86 46.5 -125t119.5 -39q113 0 189.5 72t76.5 215v96l-133 -4q-170 -8 -234.5 -63t-64.5 -152zM336 1470q0 102 60.5 162t158.5 60q96 0 161.5 -58.5t65.5 -161.5q0 -106 -65.5 -165.5t-161.5 -59.5q-98 0 -158.5 58.5t-60.5 164.5zM455 1470q0 -110 100 -110 q45 0 72.5 29.5t27.5 80.5t-28.5 80t-71.5 29q-41 0 -70.5 -28.5t-29.5 -80.5z" />
<glyph unicode="&#xe6;" horiz-adv-x="1703" d="M84 313q0 336 467 353l174 6v73q0 115 -52 162t-138 47q-74 0 -149 -24.5t-140 -57.5l-68 156q74 41 173.5 68.5t199.5 27.5q225 0 317 -163q55 78 135.5 120.5t186.5 42.5q129 0 223 -61.5t146.5 -173t52.5 -260.5v-123h-664q8 -350 285 -350q90 0 169 19.5t159 57.5 v-180q-78 -39 -156 -56t-186 -17q-270 0 -398 223q-51 -72 -104 -121t-126 -75.5t-177 -26.5q-90 0 -166 35.5t-120 109.5t-44 188zM313 311q0 -86 44 -125t116 -39q106 0 178 72t72 215v96l-127 -4q-160 -8 -221.5 -63t-61.5 -152zM952 666h441q0 129 -51.5 209.5 t-155.5 80.5q-102 0 -162.5 -73.5t-71.5 -216.5z" />
<glyph unicode="&#xe7;" horiz-adv-x="954" d="M98 545q0 205 64.5 332t178.5 187t259 60q86 0 165 -18.5t130 -44.5l-68 -174q-53 23 -111.5 38t-113.5 15q-274 0 -274 -393q0 -188 68.5 -286.5t199.5 -98.5q84 0 149.5 20.5t124.5 53.5v-189q-57 -35 -124.5 -51t-161.5 -16q-219 0 -352.5 136t-133.5 429zM396 -350 q23 -4 53.5 -8t58.5 -4q55 0 87 17t32 64q0 49 -45 75t-121 36l76 170h137l-39 -94q63 -18 113.5 -60t50.5 -120q0 -102 -69.5 -160t-210.5 -58q-39 0 -70 4.5t-53 8.5v129z" />
<glyph unicode="&#xe8;" horiz-adv-x="1112" d="M98 543q0 279 131 430t344 151q205 0 326 -134t121 -365v-119h-694q4 -170 81.5 -260t219.5 -90q100 0 179 19.5t161 57.5v-180q-78 -39 -159 -56t-196 -17q-152 0 -267.5 63t-181 188t-65.5 312zM241 1548v21h256q23 -45 59.5 -101.5t73.5 -110.5t68 -91v-25h-150 q-45 37 -106.5 95.5t-116.5 116.5t-84 95zM332 666h469q-2 129 -56.5 209.5t-169.5 80.5q-109 0 -171 -75.5t-72 -214.5z" />
<glyph unicode="&#xe9;" horiz-adv-x="1112" d="M98 543q0 279 131 430t344 151q205 0 326 -134t121 -365v-119h-694q4 -170 81.5 -260t219.5 -90q100 0 179 19.5t161 57.5v-180q-78 -39 -159 -56t-196 -17q-152 0 -267.5 63t-181 188t-65.5 312zM332 666h469q-2 129 -56.5 209.5t-169.5 80.5q-109 0 -171 -75.5 t-72 -214.5zM391 1241v25q29 37 66.5 91t73.5 110.5t61 101.5h256v-21q-31 -37 -86.5 -95t-117 -116.5t-108.5 -95.5h-145z" />
<glyph unicode="&#xea;" horiz-adv-x="1112" d="M98 543q0 279 131 430t344 151q205 0 326 -134t121 -365v-119h-694q4 -170 81.5 -260t219.5 -90q100 0 179 19.5t161 57.5v-180q-78 -39 -159 -56t-196 -17q-152 0 -267.5 63t-181 188t-65.5 312zM203 1241v25q37 39 82 92t88 109.5t70 101.5h233q25 -45 68 -101.5 t90 -110.5t82 -91v-25h-150q-51 33 -104.5 80t-104.5 102q-51 -55 -102 -102t-103 -80h-149zM332 666h469q-2 129 -56.5 209.5t-169.5 80.5q-109 0 -171 -75.5t-72 -214.5z" />
<glyph unicode="&#xeb;" horiz-adv-x="1112" d="M98 543q0 279 131 430t344 151q205 0 326 -134t121 -365v-119h-694q4 -170 81.5 -260t219.5 -90q100 0 179 19.5t161 57.5v-180q-78 -39 -159 -56t-196 -17q-152 0 -267.5 63t-181 188t-65.5 312zM262 1397q0 59 31 84.5t78 25.5q43 0 75.5 -25.5t32.5 -84.5 q0 -55 -32.5 -83t-75.5 -28q-47 0 -78 28t-31 83zM332 666h469q-2 129 -56.5 209.5t-169.5 80.5q-109 0 -171 -75.5t-72 -214.5zM639 1397q0 59 33 84.5t76 25.5q45 0 77.5 -25.5t32.5 -84.5q0 -55 -32.5 -83t-77.5 -28q-43 0 -76 28t-33 83z" />
<glyph unicode="&#xec;" horiz-adv-x="532" d="M-52 1548v21h256q23 -45 59.5 -101.5t73.5 -110.5t68 -91v-25h-150q-45 37 -106.5 95.5t-116.5 116.5t-84 95zM156 0v1104h221v-1104h-221z" />
<glyph unicode="&#xed;" horiz-adv-x="532" d="M98 1241v25q29 37 66.5 91t73.5 110.5t61 101.5h256v-21q-31 -37 -86.5 -95t-117 -116.5t-108.5 -95.5h-145zM156 0v1104h221v-1104h-221z" />
<glyph unicode="&#xee;" horiz-adv-x="532" d="M-90 1241v25q37 39 82 92t88 109.5t70 101.5h233q25 -45 68 -101.5t90 -110.5t82 -91v-25h-150q-51 33 -104.5 80t-104.5 102q-51 -55 -102 -102t-103 -80h-149zM156 0v1104h221v-1104h-221z" />
<glyph unicode="&#xef;" horiz-adv-x="532" d="M-31 1397q0 59 31 84.5t78 25.5q43 0 75.5 -25.5t32.5 -84.5q0 -55 -32.5 -83t-75.5 -28q-47 0 -78 28t-31 83zM156 0v1104h221v-1104h-221zM346 1397q0 59 33 84.5t76 25.5q45 0 77.5 -25.5t32.5 -84.5q0 -55 -32.5 -83t-77.5 -28q-43 0 -76 28t-33 83z" />
<glyph unicode="&#xf0;" horiz-adv-x="1179" d="M98 481q0 231 124 363.5t329 132.5q201 0 280 -113l9 4q-31 106 -86.5 195.5t-126.5 161.5l-232 -150l-82 125l193 125q-74 55 -162 102l80 140q63 -31 125.5 -68t118.5 -78l215 138l82 -123l-177 -113q133 -131 214 -320.5t81 -437.5q0 -289 -134 -437t-363 -148 q-143 0 -253 60t-172.5 172t-62.5 269zM324 475q0 -143 63.5 -234t202.5 -91t202.5 95t63.5 275q0 117 -64.5 202t-201.5 85q-141 0 -203.5 -84t-62.5 -248z" />
<glyph unicode="&#xf1;" horiz-adv-x="1220" d="M156 0v1104h174l30 -148h13q49 86 136 127t187 41q180 0 277.5 -96t97.5 -309v-719h-221v688q0 258 -205 258q-154 0 -211 -100.5t-57 -288.5v-557h-221zM243 1241q12 131 70.5 203t152.5 72q55 0 106.5 -29t99.5 -56.5t91 -27.5q72 0 96 115h119q-12 -131 -71.5 -203 t-151.5 -72q-53 0 -105.5 27.5t-100.5 56.5t-91 29q-76 0 -96 -115h-119z" />
<glyph unicode="&#xf2;" horiz-adv-x="1179" d="M98 553q0 274 132 422.5t362 148.5q143 0 253.5 -66.5t174 -193.5t63.5 -311q0 -274 -134 -423.5t-363 -149.5q-141 0 -251 66.5t-173.5 194.5t-63.5 312zM272 1548v21h256q23 -45 59.5 -101.5t73.5 -110.5t68 -91v-25h-150q-45 37 -106.5 95.5t-116.5 116.5t-84 95z M328 553q0 -186 61.5 -290.5t200.5 -104.5t201.5 104.5t62.5 290.5q0 188 -63.5 289.5t-202.5 101.5q-137 0 -198.5 -101.5t-61.5 -289.5z" />
<glyph unicode="&#xf3;" horiz-adv-x="1179" d="M98 553q0 274 132 422.5t362 148.5q143 0 253.5 -66.5t174 -193.5t63.5 -311q0 -274 -134 -423.5t-363 -149.5q-141 0 -251 66.5t-173.5 194.5t-63.5 312zM328 553q0 -186 61.5 -290.5t200.5 -104.5t201.5 104.5t62.5 290.5q0 188 -63.5 289.5t-202.5 101.5 q-137 0 -198.5 -101.5t-61.5 -289.5zM422 1241v25q29 37 66.5 91t73.5 110.5t61 101.5h256v-21q-31 -37 -86.5 -95t-117 -116.5t-108.5 -95.5h-145z" />
<glyph unicode="&#xf4;" horiz-adv-x="1179" d="M98 553q0 274 132 422.5t362 148.5q143 0 253.5 -66.5t174 -193.5t63.5 -311q0 -274 -134 -423.5t-363 -149.5q-141 0 -251 66.5t-173.5 194.5t-63.5 312zM234 1241v25q37 39 82 92t88 109.5t70 101.5h233q25 -45 68 -101.5t90 -110.5t82 -91v-25h-150q-51 33 -104.5 80 t-104.5 102q-51 -55 -102 -102t-103 -80h-149zM328 553q0 -186 61.5 -290.5t200.5 -104.5t201.5 104.5t62.5 290.5q0 188 -63.5 289.5t-202.5 101.5q-137 0 -198.5 -101.5t-61.5 -289.5z" />
<glyph unicode="&#xf5;" horiz-adv-x="1179" d="M98 553q0 274 132 422.5t362 148.5q143 0 253.5 -66.5t174 -193.5t63.5 -311q0 -274 -134 -423.5t-363 -149.5q-141 0 -251 66.5t-173.5 194.5t-63.5 312zM223 1241q12 131 70.5 203t152.5 72q55 0 106.5 -29t99.5 -56.5t91 -27.5q72 0 96 115h119q-12 -131 -71.5 -203 t-151.5 -72q-53 0 -105.5 27.5t-100.5 56.5t-91 29q-76 0 -96 -115h-119zM328 553q0 -186 61.5 -290.5t200.5 -104.5t201.5 104.5t62.5 290.5q0 188 -63.5 289.5t-202.5 101.5q-137 0 -198.5 -101.5t-61.5 -289.5z" />
<glyph unicode="&#xf6;" horiz-adv-x="1179" d="M98 553q0 274 132 422.5t362 148.5q143 0 253.5 -66.5t174 -193.5t63.5 -311q0 -274 -134 -423.5t-363 -149.5q-141 0 -251 66.5t-173.5 194.5t-63.5 312zM293 1397q0 59 31 84.5t78 25.5q43 0 75.5 -25.5t32.5 -84.5q0 -55 -32.5 -83t-75.5 -28q-47 0 -78 28t-31 83z M328 553q0 -186 61.5 -290.5t200.5 -104.5t201.5 104.5t62.5 290.5q0 188 -63.5 289.5t-202.5 101.5q-137 0 -198.5 -101.5t-61.5 -289.5zM670 1397q0 59 33 84.5t76 25.5q45 0 77.5 -25.5t32.5 -84.5q0 -55 -32.5 -83t-77.5 -28q-43 0 -76 28t-33 83z" />
<glyph unicode="&#xf7;" horiz-adv-x="1099" d="M88 639v166h920v-166h-920zM430 373q0 74 35 102.5t82 28.5t82 -29t35 -102q0 -70 -35 -101.5t-82 -31.5t-82 31.5t-35 101.5zM430 1071q0 74 35 102.5t82 28.5t82 -28.5t35 -102.5q0 -72 -35 -102.5t-82 -30.5t-82 30.5t-35 102.5z" />
<glyph unicode="&#xf8;" horiz-adv-x="1187" d="M98 553q0 274 133.5 422.5t364.5 148.5q135 0 244 -67l69 104l125 -86l-76 -114q61 -74 96.5 -175.5t35.5 -232.5q0 -274 -135.5 -423.5t-364.5 -149.5q-133 0 -238 61l-73 -111l-127 86l81 121q-66 74 -100.5 178.5t-34.5 237.5zM324 553q0 -70 8 -129t26 -105l377 584 q-59 41 -143 41q-141 0 -204.5 -101.5t-63.5 -289.5zM459 195q55 -37 135 -37q143 0 207.5 104.5t64.5 290.5q0 129 -35 221z" />
<glyph unicode="&#xf9;" horiz-adv-x="1218" d="M147 381v723h224v-690q0 -256 202 -256q152 0 210.5 99t58.5 288v559h221v-1104h-174l-31 145h-12q-51 -86 -138 -125.5t-188 -39.5q-178 0 -275.5 95t-97.5 306zM293 1548v21h256q23 -45 59.5 -101.5t73.5 -110.5t68 -91v-25h-150q-45 37 -106.5 95.5t-116.5 116.5 t-84 95z" />
<glyph unicode="&#xfa;" horiz-adv-x="1218" d="M147 381v723h224v-690q0 -256 202 -256q152 0 210.5 99t58.5 288v559h221v-1104h-174l-31 145h-12q-51 -86 -138 -125.5t-188 -39.5q-178 0 -275.5 95t-97.5 306zM442 1241v25q29 37 66.5 91t73.5 110.5t61 101.5h256v-21q-31 -37 -86.5 -95t-117 -116.5t-108.5 -95.5 h-145z" />
<glyph unicode="&#xfb;" horiz-adv-x="1218" d="M147 381v723h224v-690q0 -256 202 -256q152 0 210.5 99t58.5 288v559h221v-1104h-174l-31 145h-12q-51 -86 -138 -125.5t-188 -39.5q-178 0 -275.5 95t-97.5 306zM254 1241v25q37 39 82 92t88 109.5t70 101.5h233q25 -45 68 -101.5t90 -110.5t82 -91v-25h-150 q-51 33 -104.5 80t-104.5 102q-51 -55 -102 -102t-103 -80h-149z" />
<glyph unicode="&#xfc;" horiz-adv-x="1218" d="M147 381v723h224v-690q0 -256 202 -256q152 0 210.5 99t58.5 288v559h221v-1104h-174l-31 145h-12q-51 -86 -138 -125.5t-188 -39.5q-178 0 -275.5 95t-97.5 306zM313 1397q0 59 31 84.5t78 25.5q43 0 75.5 -25.5t32.5 -84.5q0 -55 -32.5 -83t-75.5 -28q-47 0 -78 28 t-31 83zM690 1397q0 59 33 84.5t76 25.5q45 0 77.5 -25.5t32.5 -84.5q0 -55 -32.5 -83t-77.5 -28q-43 0 -76 28t-33 83z" />
<glyph unicode="&#xfd;" horiz-adv-x="1034" d="M2 1104h238l211 -627q49 -143 67 -268h6q10 53 28.5 125t41.5 145l201 625h239l-442 -1254q-57 -160 -152.5 -251t-255.5 -91q-45 0 -80.5 5.5t-62.5 11.5v172q20 -4 51 -8t64 -4q90 0 141 54t80 142l41 119zM350 1241v25q29 37 66.5 91t73.5 110.5t61 101.5h256v-21 q-31 -37 -86.5 -95t-117 -116.5t-108.5 -95.5h-145z" />
<glyph unicode="&#xfe;" horiz-adv-x="1198" d="M156 -492v2048h221v-438q0 -35 -3 -85t-5 -77h10q45 70 117.5 119t191.5 49q184 0 298 -145t114 -426t-114 -427t-300 -146q-115 0 -189.5 45t-119.5 108h-12q4 -27 8 -81t4 -87v-457h-221zM377 555q0 -193 55 -295t203 -102q123 0 180 103t57 296q0 195 -57 292t-184 97 q-137 0 -195.5 -88t-58.5 -266v-37z" />
<glyph unicode="&#xff;" horiz-adv-x="1034" d="M2 1104h238l211 -627q49 -143 67 -268h6q10 53 28.5 125t41.5 145l201 625h239l-442 -1254q-57 -160 -152.5 -251t-255.5 -91q-45 0 -80.5 5.5t-62.5 11.5v172q20 -4 51 -8t64 -4q90 0 141 54t80 142l41 119zM221 1397q0 59 31 84.5t78 25.5q43 0 75.5 -25.5t32.5 -84.5 q0 -55 -32.5 -83t-75.5 -28q-47 0 -78 28t-31 83zM598 1397q0 59 33 84.5t76 25.5q45 0 77.5 -25.5t32.5 -84.5q0 -55 -32.5 -83t-77.5 -28q-43 0 -76 28t-33 83z" />
<glyph unicode="&#x152;" horiz-adv-x="1810" d="M113 735q0 227 68.5 395t206.5 261.5t349 93.5q51 0 104.5 -6t96.5 -17h762v-188h-533v-418h498v-186h-498v-480h533v-190h-758q-43 -8 -96 -14t-103 -6q-213 0 -353 94t-208.5 264t-68.5 397zM350 733q0 -262 96.5 -413.5t298.5 -151.5q115 0 199 37v1055q-39 18 -90 26 t-106 8q-205 0 -301.5 -149.5t-96.5 -411.5z" />
<glyph unicode="&#x153;" horiz-adv-x="1843" d="M96 553q0 274 130 421.5t360 147.5q115 0 210 -51t156 -153q123 204 361 204q201 0 318.5 -133t117.5 -364v-119h-684q4 -178 80 -264t215 -86q98 0 177 19.5t161 57.5v-180q-78 -39 -158 -56t-192 -17q-125 0 -224.5 51t-162.5 155q-127 -207 -379 -206 q-141 0 -251 66.5t-172.5 194.5t-62.5 312zM328 553q0 -195 59 -295t197 -100q133 0 193.5 99t60.5 292q0 201 -61.5 298t-196.5 97t-193.5 -98t-58.5 -293zM1071 666h459q-2 129 -55 208.5t-166 79.5q-102 0 -165 -72.5t-73 -215.5z" />
<glyph unicode="&#x178;" horiz-adv-x="1138" d="M0 1462h246l323 -684l326 684h244l-455 -895v-567h-227v559zM272 1755q0 59 31 84.5t78 25.5q43 0 75.5 -25.5t32.5 -84.5q0 -55 -32.5 -83t-75.5 -28q-47 0 -78 28t-31 83zM649 1755q0 59 33 84.5t76 25.5q45 0 77.5 -25.5t32.5 -84.5q0 -55 -32.5 -83t-77.5 -28 q-43 0 -76 28t-33 83z" />
<glyph unicode="&#x2c6;" horiz-adv-x="876" d="M82 1241v25q37 39 82 92t88 109.5t70 101.5h233q25 -45 68 -101.5t90 -110.5t82 -91v-25h-150q-51 33 -104.5 80t-104.5 102q-51 -55 -102 -102t-103 -80h-149z" />
<glyph unicode="&#x2dc;" horiz-adv-x="899" d="M82 1241q12 131 70.5 203t152.5 72q55 0 106.5 -29t99.5 -56.5t91 -27.5q72 0 96 115h119q-12 -131 -71.5 -203t-151.5 -72q-53 0 -105.5 27.5t-100.5 56.5t-91 29q-76 0 -96 -115h-119z" />
<glyph unicode="&#x2000;" horiz-adv-x="975" />
<glyph unicode="&#x2001;" horiz-adv-x="1950" />
<glyph unicode="&#x2002;" horiz-adv-x="975" />
<glyph unicode="&#x2003;" horiz-adv-x="1950" />
<glyph unicode="&#x2004;" horiz-adv-x="650" />
<glyph unicode="&#x2005;" horiz-adv-x="487" />
<glyph unicode="&#x2006;" horiz-adv-x="325" />
<glyph unicode="&#x2007;" horiz-adv-x="325" />
<glyph unicode="&#x2008;" horiz-adv-x="243" />
<glyph unicode="&#x2009;" horiz-adv-x="390" />
<glyph unicode="&#x200a;" horiz-adv-x="108" />
<glyph unicode="&#x2010;" horiz-adv-x="618" d="M68 457v184h483v-184h-483z" />
<glyph unicode="&#x2011;" horiz-adv-x="618" d="M68 457v184h483v-184h-483z" />
<glyph unicode="&#x2012;" horiz-adv-x="618" d="M68 457v184h483v-184h-483z" />
<glyph unicode="&#x2013;" horiz-adv-x="964" d="M76 459v180h813v-180h-813z" />
<glyph unicode="&#x2014;" horiz-adv-x="1927" d="M76 459v180h1773v-180h-1773z" />
<glyph unicode="&#x2018;" horiz-adv-x="372" d="M23 983q27 106 72.5 237.5t92.5 241.5h160q-29 -119 -54.5 -257t-39.5 -244h-219z" />
<glyph unicode="&#x2019;" horiz-adv-x="372" d="M25 961q29 117 55 256t41 245h217l14 -22q-27 -109 -73 -239t-93 -240h-161z" />
<glyph unicode="&#x201a;" horiz-adv-x="532" d="M64 -264q29 117 55 256t41 245h217l14 -22q-27 -109 -73 -239t-93 -240h-161z" />
<glyph unicode="&#x201c;" horiz-adv-x="763" d="M23 983q27 106 72.5 237.5t92.5 241.5h160q-29 -119 -55.5 -257t-40.5 -244h-217zM410 983q27 106 73.5 237.5t94.5 241.5h161q-27 -119 -53.5 -257t-42.5 -244h-219z" />
<glyph unicode="&#x201d;" horiz-adv-x="763" d="M25 961q29 117 54 256t40 245h219l12 -22q-27 -109 -74 -239t-92 -240h-159zM412 961q18 78 37.5 167t35 176t25.5 158h219l12 -22q-27 -109 -72.5 -239t-93.5 -240h-163z" />
<glyph unicode="&#x201e;" horiz-adv-x="911" d="M64 -264q29 117 54 256t40 245h219l12 -22q-27 -109 -74 -239t-92 -240h-159zM451 -264q18 78 37.5 167t35 176t25.5 158h219l12 -22q-27 -109 -72.5 -239t-93.5 -240h-163z" />
<glyph unicode="&#x2022;" horiz-adv-x="729" d="M125 748q0 147 68.5 209.5t168.5 62.5t171 -62.5t71 -209.5q0 -145 -70.5 -209t-171.5 -64q-100 0 -168.5 64t-68.5 209z" />
<glyph unicode="&#x2026;" horiz-adv-x="1658" d="M125 121q0 80 40 112.5t99 32.5q57 0 99.5 -32.5t42.5 -112.5t-42 -115t-100 -35q-59 0 -99 35t-40 115zM676 121q0 80 40 112.5t99 32.5q57 0 99.5 -32.5t42.5 -112.5t-42 -115t-100 -35q-59 0 -99 35t-40 115zM1225 121q0 80 40 112.5t99 32.5q57 0 99.5 -32.5 t42.5 -112.5t-42 -115t-100 -35q-59 0 -99 35t-40 115z" />
<glyph unicode="&#x202f;" horiz-adv-x="390" />
<glyph unicode="&#x2039;" horiz-adv-x="645" d="M76 532v27l336 424l157 -86l-264 -350l264 -350l-157 -88z" />
<glyph unicode="&#x203a;" horiz-adv-x="645" d="M76 197l264 350l-264 350l157 86l336 -424v-27l-336 -423z" />
<glyph unicode="&#x205f;" horiz-adv-x="487" />
<glyph unicode="&#x20ac;" horiz-adv-x="1105" d="M49 498v145h131q-2 20 -2 37.5v40.5q0 20 1 39.5t1 30.5h-131v147h144q39 250 179 395.5t371 145.5q186 0 340 -90l-82 -175q-55 31 -121.5 55.5t-136.5 24.5q-268 0 -329 -356h430v-147h-443q-2 -16 -2 -33v-37v-36.5t2 -41.5h385v-145h-368q29 -158 113.5 -244 t228.5 -86q76 0 146.5 18.5t127.5 44.5v-188q-55 -27 -125.5 -45t-163.5 -18q-229 0 -368 137t-180 381h-148z" />
<glyph unicode="&#x2122;" horiz-adv-x="1486" d="M33 1352v110h510v-110h-191v-611h-129v611h-190zM606 741v721h193l174 -555l180 555h188v-721h-133v418q0 16 2 64.5t4 72.5h-8l-186 -555h-109l-178 555h-8q4 -33 5 -73.5t1 -53.5v-428h-125z" />
<glyph unicode="&#x25fc;" horiz-adv-x="1105" d="M0 0v1106h1106v-1106h-1106z" />
</font>
</defs>
</svg>
